<?xml version="1.0" standalone="no"?>
<!DOCTYPE svg PUBLIC "-//W3C//DTD SVG 20010904//EN"
 "http://www.w3.org/TR/2001/REC-SVG-20010904/DTD/svg10.dtd">
<svg version="1.0" xmlns="http://www.w3.org/2000/svg"
 width="200.000000pt" height="200.000000pt" viewBox="0 0 200.000000 200.000000"
 preserveAspectRatio="xMidYMid meet">
<metadata>
Created by potrace 1.14, written by Peter Selinger 2001-2017
</metadata>
<g transform="translate(0.000000,200.000000) scale(0.100000,-0.100000)"
fill="#000000" stroke="none">
<path d="M65 1622 c-3 -3 -5 -24 -5 -47 l0 -42 68 -6 c37 -4 98 -7 135 -7 118
0 107 51 107 -495 0 -261 -1 -476 -2 -476 -2 -1 -70 -7 -153 -13 l-150 -11 -3
-47 -3 -48 371 0 371 0 -3 48 -3 47 -140 10 c-77 6 -146 14 -152 18 -10 6 -13
113 -13 477 0 537 -9 490 98 490 32 0 94 3 136 7 l77 6 -3 46 -3 46 -362 1
c-200 1 -365 -1 -368 -4z"/>
<path d="M1051 1617 c-12 -12 -14 -56 -3 -73 4 -7 36 -16 72 -20 l65 -9 3
-479 c1 -264 -2 -484 -6 -488 -5 -5 -33 -11 -63 -15 -64 -7 -79 -17 -79 -52 0
-52 0 -52 236 -49 l219 3 0 45 0 45 -82 7 c-46 4 -87 9 -93 13 -6 4 -10 76
-10 189 l0 183 163 6 c280 11 404 68 470 216 32 71 28 208 -7 282 -44 94 -116
151 -239 186 -65 19 -629 27 -646 10z m603 -113 c123 -32 176 -90 184 -204 6
-90 -11 -147 -59 -192 -59 -57 -140 -77 -319 -80 l-145 -3 -3 234 c-2 164 1
238 9 247 17 21 251 19 333 -2z"/>
</g>
</svg>
