<svg xmlns="http://www.w3.org/2000/svg">
  <defs>
    <symbol id="email" viewBox="0 0 512 512">
      <path d="M64 112c-8.8 0-16 7.2-16 16v22.1L220.5 291.7c20.7 17 50.4 17 71.1 0L464 150.1V128c0-8.8-7.2-16-16-16H64zM48 212.2V384c0 8.8 7.2 16 16 16H448c8.8 0 16-7.2 16-16V212.2L322 328.8c-38.4 31.5-93.7 31.5-132 0L48 212.2zM0 128C0 92.7 28.7 64 64 64H448c35.3 0 64 28.7 64 64V384c0 35.3-28.7 64-64 64H64c-35.3 0-64-28.7-64-64V128z"/>
    </symbol>
    <symbol id="github" viewBox="0 0 496 512">
      <path d="M165.9 397.4c0 2-2.3 3.6-5.2 3.6-3.3 .3-5.6-1.3-5.6-3.6 0-2 2.3-3.6 5.2-3.6 3-.3 5.6 1.3 5.6 3.6zm-31.1-4.5c-.7 2 1.3 4.3 4.3 4.9 2.6 1 5.6 0 6.2-2s-1.3-4.3-4.3-5.2c-2.6-.7-5.5 .3-6.2 2.3zm44.2-1.7c-2.9 .7-4.9 2.6-4.6 4.9 .3 2 2.9 3.3 5.9 2.6 2.9-.7 4.9-2.6 4.6-4.6-.3-1.9-3-3.2-5.9-2.9zM244.8 8C106.1 8 0 113.3 0 252c0 110.9 69.8 205.8 169.5 239.2 12.8 2.3 17.3-5.6 17.3-12.1 0-6.2-.3-40.4-.3-61.4 0 0-70 15-84.7-29.8 0 0-11.4-29.1-27.8-36.6 0 0-22.9-15.7 1.6-15.4 0 0 24.9 2 38.6 25.8 21.9 38.6 58.6 27.5 72.9 20.9 2.3-16 8.8-27.1 16-33.7-55.9-6.2-112.3-14.3-112.3-110.5 0-27.5 7.6-41.3 23.6-58.9-2.6-6.5-11.1-33.3 2.6-67.9 20.9-6.5 69 27 69 27 20-5.6 41.5-8.5 62.8-8.5s42.8 2.9 62.8 8.5c0 0 48.1-33.6 69-27 13.7 34.7 5.2 61.4 2.6 67.9 16 17.7 25.8 31.5 25.8 58.9 0 96.5-58.9 104.2-114.8 110.5 9.2 7.9 17 22.9 17 46.4 0 33.7-.3 75.4-.3 83.6 0 6.5 4.6 14.4 17.3 12.1C428.2 457.8 496 362.9 496 252 496 113.3 383.5 8 244.8 8zM97.2 352.9c-1.3 1-1 3.3 .7 5.2 1.6 1.6 3.9 2.3 5.2 1 1.3-1 1-3.3-.7-5.2-1.6-1.6-3.9-2.3-5.2-1zm-10.8-8.1c-.7 1.3 .3 2.9 2.3 3.9 1.6 1 3.6 .7 4.3-.7 .7-1.3-.3-2.9-2.3-3.9-2-.6-3.6-.3-4.3 .7zm32.4 35.6c-1.6 1.3-1 4.3 1.3 6.2 2.3 2.3 5.2 2.6 6.5 1 1.3-1.3 .7-4.3-1.3-6.2-2.2-2.3-5.2-2.6-6.5-1zm-11.4-14.7c-1.6 1-1.6 3.6 0 5.9 1.6 2.3 4.3 3.3 5.6 2.3 1.6-1.3 1.6-3.9 0-6.2-1.4-2.3-4-3.3-5.6-2z"/>
    </symbol>
    <symbol id="linkedin" viewBox="0 0 448 512">
      <path d="M416 32H31.9C14.3 32 0 46.5 0 64.3v383.4C0 465.5 14.3 480 31.9 480H416c17.6 0 32-14.5 32-32.3V64.3c0-17.8-14.4-32.3-32-32.3zM135.4 416H69V202.2h66.5V416zm-33.2-243c-21.3 0-38.5-17.3-38.5-38.5S80.9 96 102.2 96c21.2 0 38.5 17.3 38.5 38.5 0 21.3-17.2 38.5-38.5 38.5zm282.1 243h-66.4V312c0-24.8-.5-56.7-34.5-56.7-34.6 0-39.9 27-39.9 54.9V416h-66.4V202.2h63.7v29.2h.9c8.9-16.8 30.6-34.5 62.9-34.5 67.2 0 79.7 44.3 79.7 101.9V416z"/>
    </symbol>
    <symbol id="twitter-x" viewBox="0 0 512 512">
      <path d="M389.2 48h70.6L305.6 224.2 487 464H345L233.7 318.6 106.5 464H35.8L200.7 275.5 26.8 48H172.4L272.9 180.9 389.2 48zM364.4 421.8h39.1L151.1 88h-42L364.4 421.8z"/>
    </symbol>
    <symbol id="google-scholar" viewBox="0 0 384 512">
      <path d="M343.759 106.662V79.43L363.524 64h-213.89L20.476 176.274h85.656a82 82 0 0 0-.219 6.225c0 20.845 7.22 38.087 21.672 51.861c14.453 13.797 32.252 20.648 53.327 20.648c4.923 0 9.75-.368 14.438-1.024c-2.907 6.5-4.374 12.523-4.374 18.142c0 9.875 4.499 20.43 13.467 31.642c-39.234 2.67-68.061 9.732-86.437 21.163c-10.531 6.5-19 14.704-25.39 24.531c-6.391 9.9-9.578 20.515-9.578 31.962c0 9.648 2.062 18.336 6.219 26.062c4.156 7.726 9.578 14.07 16.312 18.984c6.718 4.968 14.469 9.101 23.219 12.469c8.734 3.344 17.406 5.718 26.061 7.062A167 167 0 0 0 180.555 448c13.469 0 26.953-1.734 40.547-5.187c13.562-3.485 26.28-8.642 38.171-15.493c11.86-6.805 21.515-16.086 28.922-27.718c7.39-11.68 11.094-24.805 11.094-39.336c0-11.016-2.25-21.039-6.75-30.14c-4.468-9.073-9.938-16.542-16.452-22.345c-6.501-5.813-13-11.155-19.516-15.968c-6.5-4.845-12-9.75-16.468-14.813c-4.485-5.046-6.735-10.054-6.735-14.984c0-4.921 1.734-9.672 5.216-14.265c3.455-4.61 7.674-9.048 12.61-13.306c4.937-4.25 9.875-8.968 14.796-14.133c4.922-5.147 9.141-11.827 12.61-20.008c3.485-8.18 5.203-17.445 5.203-27.757c0-13.453-2.547-24.46-7.547-33.314c-.594-1.022-1.218-1.803-1.875-3.022l56.907-46.672v17.119c-7.393.93-6.624 5.345-6.624 10.635V245.96c0 5.958 4.875 10.834 10.834 10.834h3.989c5.958 0 10.833-4.875 10.833-10.834V117.293c0-5.277.778-9.688-6.561-10.63m-107.36 222.48c1.14.75 3.704 2.78 7.718 6.038c4.05 3.243 6.797 5.695 8.266 7.414a444 444 0 0 1 6.376 7.547c2.813 3.375 4.718 6.304 5.718 8.734q1.5 3.717 3.047 8.946a38.3 38.3 0 0 1 1.485 10.562c0 17.048-6.564 29.68-19.656 37.859c-13.125 8.18-28.767 12.274-46.938 12.274c-9.187 0-18.203-1.093-27.063-3.196c-8.843-2.116-17.311-5.336-25.39-9.601c-8.078-4.258-14.577-10.204-19.5-17.797c-4.938-7.64-7.407-16.415-7.407-26.25c0-10.32 2.797-19.29 8.422-26.906c5.594-7.625 12.938-13.391 22.032-17.315c9.063-3.946 18.25-6.742 27.562-8.398a158 158 0 0 1 28.438-2.555c4.47 0 7.936.25 10.405.696c.455.219 3.032 2.07 7.735 5.563c4.704 3.462 7.625 5.595 8.75 6.384zm-3.359-100.579c-7.406 8.86-17.734 13.288-30.953 13.288c-11.86 0-22.298-4.764-31.266-14.312c-9-9.523-15.422-20.328-19.344-32.43c-3.937-12.109-5.906-23.984-5.906-35.648q.002-20.54 10.781-34.976c7.187-9.65 17.5-14.485 30.938-14.485c11.875 0 22.374 5.038 31.437 15.157c9.094 10.085 15.61 21.413 19.517 33.968c3.922 12.54 5.873 24.53 5.873 35.984c0 13.446-3.702 24.61-11.076 33.454z"/>
    </symbol>

</defs>
</svg>