<svg xmlns="http://www.w3.org/2000/svg">
  <defs>
    <!-- nextjs icon -->
    <symbol id="nextjs" viewBox="0 0 15 15">
      <path fill-rule="evenodd" clip-rule="evenodd"
        d="M0 7.5C0 3.35786 3.35786 0 7.5 0C11.6421 0 15 3.35786 15 7.5C15 10.087 13.6902 12.3681 11.6975 13.7163L4.90687 4.20942C4.78053 4.03255 4.5544 3.95756 4.34741 4.02389C4.14042 4.09022 4 4.28268 4 4.50004V12H5V6.06027L10.8299 14.2221C9.82661 14.7201 8.696 15 7.5 15C3.35786 15 0 11.6421 0 7.5ZM10 10V4H11V10H10Z"
        fill="#000000" />

    </symbol>


    <!-- javascript icon -->
    <symbol id="javascript" viewBox="0 0 630 630">
      <rect width="630" height="630" fill="#f7df1e" />
      <path fill="black"
        d="m423.2 492.19c12.69 20.72 29.2 35.95 58.4 35.95 24.53 0 40.2-12.26 40.2-29.2 0-20.3-16.1-27.49-43.1-39.3l-14.8-6.35c-42.72-18.2-71.1-41-71.1-89.2 0-44.4 33.83-78.2 86.7-78.2 37.64 0 64.7 13.1 84.2 47.4l-46.1 29.6c-10.15-18.2-21.1-25.37-38.1-25.37-17.34 0-28.33 11-28.33 25.37 0 17.76 11 24.95 36.4 35.95l14.8 6.34c50.3 21.57 78.7 43.56 78.7 93 0 53.3-41.87 82.5-98.1 82.5-54.98 0-90.5-26.2-107.88-60.54zm-209.13 5.13c9.3 16.5 17.76 30.45 38.1 30.45 19.45 0 31.72-7.61 31.72-37.2v-201.3h59.2v202.1c0 61.3-35.94 89.2-88.4 89.2-47.4 0-74.85-24.53-88.81-54.075z" />
    </symbol>


    <!-- python icon -->
    <symbol id="python" viewBox="0 0 48 48">
      <path fill="#0277BD"
        d="M24.047,5c-1.555,0.005-2.633,0.142-3.936,0.367c-3.848,0.67-4.549,2.077-4.549,4.67V14h9v2H15.22h-4.35c-2.636,0-4.943,1.242-5.674,4.219c-0.826,3.417-0.863,5.557,0,9.125C5.851,32.005,7.294,34,9.931,34h3.632v-5.104c0-2.966,2.686-5.896,5.764-5.896h7.236c2.523,0,5-1.862,5-4.377v-8.586c0-2.439-1.759-4.263-4.218-4.672C27.406,5.359,25.589,4.994,24.047,5z M19.063,9c0.821,0,1.5,0.677,1.5,1.502c0,0.833-0.679,1.498-1.5,1.498c-0.837,0-1.5-0.664-1.5-1.498C17.563,9.68,18.226,9,19.063,9z">
      </path>
      <path fill="#FFC107"
        d="M23.078,43c1.555-0.005,2.633-0.142,3.936-0.367c3.848-0.67,4.549-2.077,4.549-4.67V34h-9v-2h9.343h4.35c2.636,0,4.943-1.242,5.674-4.219c0.826-3.417,0.863-5.557,0-9.125C41.274,15.995,39.831,14,37.194,14h-3.632v5.104c0,2.966-2.686,5.896-5.764,5.896h-7.236c-2.523,0-5,1.862-5,4.377v8.586c0,2.439,1.759,4.263,4.218,4.672C19.719,42.641,21.536,43.006,23.078,43z M28.063,39c-0.821,0-1.5-0.677-1.5-1.502c0-0.833,0.679-1.498,1.5-1.498c0.837,0,1.5,0.664,1.5,1.498C29.563,38.32,28.899,39,28.063,39z">
      </path>
    </symbol>


    <!-- laravel icon -->
    <symbol id="laravel" viewBox="-4 0 264 264">
      <path
        d="M255.855641,59.619717 C255.950565,59.9710596 256,60.3333149 256,60.6972536 L256,117.265345 C256,118.743206 255.209409,120.108149 253.927418,120.843385 L206.448786,148.178786 L206.448786,202.359798 C206.448786,203.834322 205.665123,205.195421 204.386515,205.937838 L105.27893,262.990563 C105.05208,263.119455 104.804608,263.201946 104.557135,263.289593 C104.464333,263.320527 104.376687,263.377239 104.278729,263.403017 C103.585929,263.58546 102.857701,263.58546 102.164901,263.403017 C102.051476,263.372083 101.948363,263.310215 101.840093,263.26897 C101.613244,263.186479 101.376082,263.1143 101.159544,262.990563 L2.07258227,205.937838 C0.7913718,205.201819 0,203.837372 0,202.359798 L0,32.6555248 C0,32.2843161 0.0515567729,31.9234187 0.144358964,31.5728326 C0.175293028,31.454252 0.24747251,31.3459828 0.288717928,31.2274022 C0.366053087,31.0108638 0.438232569,30.7891697 0.55165747,30.5880982 C0.628992629,30.4540506 0.742417529,30.3457814 0.83521972,30.2220451 C0.953800298,30.0570635 1.06206952,29.8869261 1.20127281,29.7425672 C1.31985339,29.6239866 1.4745237,29.5363401 1.60857131,29.4332265 C1.75808595,29.3094903 1.89213356,29.1754427 2.06227091,29.0774848 L2.06742659,29.0774848 L51.6134853,0.551122364 C52.8901903,-0.183535768 54.4613221,-0.183535768 55.7380271,0.551122364 L105.284086,29.0774848 L105.294397,29.0774848 C105.459379,29.1805983 105.598582,29.3094903 105.748097,29.4280708 C105.882144,29.5311844 106.031659,29.6239866 106.15024,29.7374115 C106.294599,29.8869261 106.397712,30.0570635 106.521448,30.2220451 C106.609095,30.3457814 106.727676,30.4540506 106.799855,30.5880982 C106.918436,30.7943253 106.985459,31.0108638 107.06795,31.2274022 C107.109196,31.3459828 107.181375,31.454252 107.212309,31.5779883 C107.307234,31.9293308 107.355765,32.2915861 107.356668,32.6555248 L107.356668,138.651094 L148.643332,114.878266 L148.643332,60.6920979 C148.643332,60.3312005 148.694889,59.9651474 148.787691,59.619717 C148.823781,59.4959808 148.890804,59.3877116 148.93205,59.269131 C149.014541,59.0525925 149.08672,58.8308984 149.200145,58.629827 C149.27748,58.4957794 149.390905,58.3875102 149.478552,58.2637739 C149.602288,58.0987922 149.705401,57.9286549 149.84976,57.7842959 C149.968341,57.6657153 150.117856,57.5780688 150.251903,57.4749553 C150.406573,57.351219 150.540621,57.2171714 150.705603,57.1192136 L150.710758,57.1192136 L200.261973,28.5928511 C201.538395,27.8571345 203.110093,27.8571345 204.386515,28.5928511 L253.932573,57.1192136 C254.107866,57.2223271 254.241914,57.351219 254.396584,57.4697996 C254.525476,57.5729132 254.674991,57.6657153 254.793572,57.7791402 C254.93793,57.9286549 255.041044,58.0987922 255.16478,58.2637739 C255.257582,58.3875102 255.371007,58.4957794 255.443187,58.629827 C255.561767,58.8308984 255.628791,59.0525925 255.711282,59.269131 C255.757683,59.3877116 255.824707,59.4959808 255.855641,59.619717 Z M247.740605,114.878266 L247.740605,67.8378666 L230.402062,77.8192579 L206.448786,91.6106946 L206.448786,138.651094 L247.745761,114.878266 L247.740605,114.878266 Z M198.194546,199.97272 L198.194546,152.901386 L174.633101,166.357704 L107.351512,204.757188 L107.351512,252.27191 L198.194546,199.97272 Z M8.25939501,39.7961379 L8.25939501,199.97272 L99.0921175,252.266755 L99.0921175,204.762344 L51.6392637,177.906421 L51.6237967,177.89611 L51.603174,177.885798 C51.443348,177.792996 51.3093004,177.658949 51.1597857,177.545524 C51.0308938,177.44241 50.8813791,177.359919 50.7679542,177.246494 L50.7576429,177.231027 C50.6235953,177.102135 50.5307931,176.942309 50.4173682,176.79795 C50.3142546,176.658747 50.1905184,176.540167 50.1080276,176.395808 L50.1028719,176.380341 C50.0100697,176.22567 49.9533572,176.040066 49.8863334,175.864773 C49.8193096,175.710103 49.7316631,175.565744 49.6904177,175.400762 L49.6904177,175.395606 C49.6388609,175.19969 49.6285496,174.993463 49.6079269,174.792392 C49.5873041,174.637722 49.5460587,174.483051 49.5460587,174.328381 L49.5460587,174.31807 L49.5460587,63.5689658 L25.5979377,49.7723734 L8.25939501,39.8012935 L8.25939501,39.7961379 Z M53.6809119,8.89300821 L12.3994039,32.6555248 L53.6706006,56.4180414 L94.9469529,32.6503692 L53.6706006,8.89300821 L53.6809119,8.89300821 Z M75.1491521,157.19091 L99.0972731,143.404629 L99.0972731,39.7961379 L81.7587304,49.7775291 L57.8054537,63.5689658 L57.8054537,167.177457 L75.1491521,157.19091 Z M202.324244,36.934737 L161.047891,60.6972536 L202.324244,84.4597702 L243.59544,60.6920979 L202.324244,36.934737 Z M198.194546,91.6106946 L174.24127,77.8192579 L156.902727,67.8378666 L156.902727,114.878266 L180.850848,128.664547 L198.194546,138.651094 L198.194546,91.6106946 Z M103.216659,197.616575 L163.759778,163.052915 L194.023603,145.781396 L152.778185,122.034346 L105.289242,149.374903 L62.0073307,174.292291 L103.216659,197.616575 Z"
        fill="#FF2D20"></path>
    </symbol>


    <!-- react icon -->
    <symbol id="react" viewBox="0 -14 256 256">
      <path
        d="M210.483381,73.8236374 C207.827698,72.9095503 205.075867,72.0446761 202.24247,71.2267368 C202.708172,69.3261098 203.135596,67.4500894 203.515631,65.6059664 C209.753843,35.3248922 205.675082,10.9302478 191.747328,2.89849283 C178.392359,-4.80289661 156.551327,3.22703567 134.492936,22.4237776 C132.371761,24.2697233 130.244662,26.2241201 128.118477,28.2723861 C126.701777,26.917204 125.287358,25.6075897 123.876584,24.3549348 C100.758745,3.82852863 77.5866802,-4.82157937 63.6725966,3.23341515 C50.3303869,10.9571328 46.3792156,33.8904224 51.9945178,62.5880206 C52.5367729,65.3599011 53.1706189,68.1905639 53.8873982,71.068617 C50.6078941,71.9995641 47.4418534,72.9920277 44.4125156,74.0478303 C17.3093297,83.497195 0,98.3066828 0,113.667995 C0,129.533287 18.5815786,145.446423 46.8116526,155.095373 C49.0394553,155.856809 51.3511025,156.576778 53.7333796,157.260293 C52.9600965,160.37302 52.2875179,163.423318 51.7229345,166.398431 C46.3687351,194.597975 50.5500231,216.989464 63.8566899,224.664425 C77.6012619,232.590464 100.66852,224.443422 123.130185,204.809231 C124.905501,203.257196 126.687196,201.611293 128.472081,199.886102 C130.785552,202.113904 133.095375,204.222319 135.392897,206.199955 C157.14963,224.922338 178.637969,232.482469 191.932332,224.786092 C205.663234,216.837268 210.125675,192.78347 204.332202,163.5181 C203.88974,161.283006 203.374826,158.99961 202.796573,156.675661 C204.416503,156.196743 206.006814,155.702335 207.557482,155.188332 C236.905331,145.46465 256,129.745175 256,113.667995 C256,98.2510906 238.132466,83.3418093 210.483381,73.8236374 L210.483381,73.8236374 Z M204.118035,144.807565 C202.718197,145.270987 201.281904,145.718918 199.818271,146.153177 C196.578411,135.896354 192.205739,124.989735 186.854729,113.72131 C191.961041,102.721277 196.164656,91.9540963 199.313837,81.7638014 C201.93261,82.5215915 204.474374,83.3208483 206.923636,84.1643056 C230.613348,92.3195488 245.063763,104.377206 245.063763,113.667995 C245.063763,123.564379 229.457753,136.411268 204.118035,144.807565 L204.118035,144.807565 Z M193.603754,165.642007 C196.165567,178.582766 196.531475,190.282717 194.834536,199.429057 C193.309843,207.64764 190.243595,213.12715 186.452366,215.321689 C178.384612,219.991462 161.131788,213.921395 142.525146,197.909832 C140.392124,196.074366 138.243609,194.114502 136.088259,192.040261 C143.301619,184.151133 150.510878,174.979732 157.54698,164.793993 C169.922699,163.695814 181.614905,161.900447 192.218042,159.449363 C192.740247,161.555956 193.204126,163.621993 193.603754,165.642007 L193.603754,165.642007 Z M87.2761866,214.514686 C79.3938934,217.298414 73.1160375,217.378157 69.3211631,215.189998 C61.2461189,210.532528 57.8891498,192.554265 62.4682434,168.438039 C62.9927272,165.676183 63.6170041,162.839142 64.3365173,159.939216 C74.8234575,162.258154 86.4299951,163.926841 98.8353334,164.932519 C105.918826,174.899534 113.336329,184.06091 120.811247,192.08264 C119.178102,193.65928 117.551336,195.16028 115.933685,196.574699 C106.001303,205.256705 96.0479605,211.41654 87.2761866,214.514686 L87.2761866,214.514686 Z M50.3486141,144.746959 C37.8658105,140.48046 27.5570398,134.935332 20.4908634,128.884403 C14.1414664,123.446815 10.9357817,118.048415 10.9357817,113.667995 C10.9357817,104.34622 24.8334611,92.4562517 48.0123604,84.3748281 C50.8247961,83.3942121 53.7689223,82.4701001 56.8242337,81.6020363 C60.0276398,92.0224477 64.229889,102.917218 69.3011135,113.93411 C64.1642716,125.11459 59.9023288,136.182975 56.6674809,146.725506 C54.489347,146.099407 52.3791089,145.440499 50.3486141,144.746959 L50.3486141,144.746959 Z M62.7270678,60.4878073 C57.9160346,35.9004118 61.1112387,17.3525532 69.1516515,12.6982729 C77.7160924,7.74005624 96.6544653,14.8094222 116.614922,32.5329619 C117.890816,33.6657739 119.171723,34.8514442 120.456275,36.0781256 C113.018267,44.0647686 105.66866,53.1573386 98.6480514,63.0655695 C86.6081646,64.1815215 75.0831931,65.9741531 64.4868907,68.3746571 C63.8206914,65.6948233 63.2305903,63.0619242 62.7270678,60.4878073 L62.7270678,60.4878073 Z M173.153901,87.7550367 C170.620796,83.3796304 168.020249,79.1076627 165.369124,74.9523483 C173.537126,75.9849113 181.362914,77.3555864 188.712066,79.0329319 C186.505679,86.1041206 183.755673,93.4974728 180.518546,101.076741 C178.196419,96.6680702 175.740322,92.2229454 173.153901,87.7550367 L173.153901,87.7550367 Z M128.122121,43.8938899 C133.166461,49.3588189 138.218091,55.4603279 143.186789,62.0803968 C138.179814,61.8439007 133.110868,61.720868 128.000001,61.720868 C122.937434,61.720868 117.905854,61.8411667 112.929865,62.0735617 C117.903575,55.515009 122.99895,49.4217021 128.122121,43.8938899 L128.122121,43.8938899 Z M82.8018984,87.830679 C80.2715265,92.2183886 77.8609975,96.6393627 75.5753239,101.068539 C72.3906004,93.5156998 69.6661103,86.0886276 67.440586,78.9171899 C74.7446255,77.2826781 82.5335049,75.9461789 90.6495601,74.9332099 C87.9610684,79.1268011 85.3391054,83.4302106 82.8018984,87.8297677 L82.8018984,87.830679 L82.8018984,87.830679 Z M90.8833221,153.182899 C82.4979621,152.247395 74.5919739,150.979704 67.289757,149.390303 C69.5508242,142.09082 72.3354636,134.505173 75.5876271,126.789657 C77.8792246,131.215644 80.2993228,135.638441 82.8451877,140.03572 L82.8456433,140.03572 C85.4388987,144.515476 88.1255676,148.90364 90.8833221,153.182899 L90.8833221,153.182899 Z M128.424691,184.213105 C123.24137,178.620587 118.071264,172.434323 113.021912,165.780078 C117.923624,165.972373 122.921029,166.0708 128.000001,166.0708 C133.217953,166.0708 138.376211,165.953235 143.45336,165.727219 C138.468257,172.501308 133.434855,178.697141 128.424691,184.213105 L128.424691,184.213105 Z M180.622896,126.396409 C184.044571,134.195313 186.929004,141.741317 189.219234,148.9164 C181.796719,150.609693 173.782736,151.973534 165.339049,152.986959 C167.996555,148.775595 170.619884,144.430263 173.197646,139.960532 C175.805484,135.438399 178.28163,130.90943 180.622896,126.396409 L180.622896,126.396409 Z M163.724586,134.496971 C159.722835,141.435557 155.614455,148.059271 151.443648,154.311611 C143.847063,154.854776 135.998946,155.134562 128.000001,155.134562 C120.033408,155.134562 112.284171,154.887129 104.822013,154.402745 C100.48306,148.068386 96.285368,141.425078 92.3091341,134.556664 L92.3100455,134.556664 C88.3442923,127.706935 84.6943232,120.799333 81.3870228,113.930466 C84.6934118,107.045648 88.3338117,100.130301 92.276781,93.292874 L92.2758697,93.294241 C96.2293193,86.4385872 100.390102,79.8276317 104.688954,73.5329157 C112.302398,72.9573964 120.109505,72.6571055 127.999545,72.6571055 L128.000001,72.6571055 C135.925583,72.6571055 143.742714,72.9596746 151.353879,73.5402067 C155.587114,79.7888993 159.719645,86.3784378 163.688588,93.2350031 C167.702644,100.168578 171.389978,107.037901 174.724618,113.77508 C171.400003,120.627999 167.720871,127.566587 163.724586,134.496971 L163.724586,134.496971 Z M186.284677,12.3729198 C194.857321,17.3165548 198.191049,37.2542268 192.804953,63.3986692 C192.461372,65.0669011 192.074504,66.7661189 191.654369,68.4881206 C181.03346,66.0374921 169.500286,64.2138746 157.425315,63.0810626 C150.391035,53.0639249 143.101577,43.9572289 135.784778,36.073113 C137.751934,34.1806885 139.716356,32.3762092 141.672575,30.673346 C160.572216,14.2257007 178.236518,7.73185406 186.284677,12.3729198 L186.284677,12.3729198 Z M128.000001,90.8080696 C140.624975,90.8080696 150.859926,101.042565 150.859926,113.667995 C150.859926,126.292969 140.624975,136.527922 128.000001,136.527922 C115.375026,136.527922 105.140075,126.292969 105.140075,113.667995 C105.140075,101.042565 115.375026,90.8080696 128.000001,90.8080696 L128.000001,90.8080696 Z"
        fill="#00D8FF">

      </path>
    </symbol>


    <!-- vue icon -->
    <symbol id="vue" viewBox="0 0 32 32">
      <path d="M2 4L16 28L30 4H24.5L16 18.5L7.5 4H2Z" fill="#41B883" />
      <path d="M7.5 4L16 18.5L24.5 4H19.5L16.0653 10.0126L12.5 4H7.5Z" fill="#35495E" />
    </symbol>


    <!-- nodejs icon -->
    <symbol id="nodejs" viewBox="-16.5 0 289 289">
      <path
        d="M127.999999,288.463771 C124.024844,288.463771 120.314699,287.403728 116.869564,285.548656 L81.6231884,264.612838 C76.32298,261.697724 78.9730854,260.637682 80.5631458,260.107661 C87.7184259,257.72257 89.0434775,257.192547 96.4637688,252.952381 C97.2587979,252.422361 98.3188405,252.687372 99.1138718,253.217392 L126.144927,269.383024 C127.20497,269.913045 128.530021,269.913045 129.325053,269.383024 L235.064182,208.165634 C236.124225,207.635611 236.654245,206.575571 236.654245,205.250519 L236.654245,83.0807467 C236.654245,81.7556929 236.124225,80.6956526 235.064182,80.1656324 L129.325053,19.2132506 C128.26501,18.6832305 126.939959,18.6832305 126.144927,19.2132506 L20.4057954,80.1656324 C19.3457551,80.6956526 18.8157349,82.0207041 18.8157349,83.0807467 L18.8157349,205.250519 C18.8157349,206.31056 19.3457551,207.635611 20.4057954,208.165634 L49.2919247,224.861286 C64.9275364,232.811595 74.7329196,223.536234 74.7329196,214.260871 L74.7329196,93.681159 C74.7329196,92.0910985 76.0579711,90.5010358 77.9130428,90.5010358 L91.4285716,90.5010358 C93.0186343,90.5010358 94.6086948,91.8260873 94.6086948,93.681159 L94.6086948,214.260871 C94.6086948,235.196689 83.2132512,247.387164 63.3374737,247.387164 C57.2422362,247.387164 52.4720502,247.387164 38.9565214,240.761906 L11.1304347,224.861286 C4.24016581,220.886129 5.68434189e-14,213.46584 5.68434189e-14,205.515528 L5.68434189e-14,83.3457557 C5.68434189e-14,75.3954465 4.24016581,67.9751552 11.1304347,64.0000006 L116.869564,2.78260752 C123.494824,-0.927535841 132.505176,-0.927535841 139.130436,2.78260752 L244.869565,64.0000006 C251.759834,67.9751552 256,75.3954465 256,83.3457557 L256,205.515528 C256,213.46584 251.759834,220.886129 244.869565,224.861286 L139.130436,286.078676 C135.685299,287.668739 131.710145,288.463771 127.999999,288.463771 L127.999999,288.463771 Z M160.596274,204.455488 C114.219461,204.455488 104.679089,183.254659 104.679089,165.233955 C104.679089,163.643893 106.004141,162.053832 107.859212,162.053832 L121.639752,162.053832 C123.229813,162.053832 124.554864,163.113872 124.554864,164.703935 C126.674947,178.749484 132.770187,185.639753 160.861283,185.639753 C183.122154,185.639753 192.662526,180.604556 192.662526,168.67909 C192.662526,161.788821 190.012423,156.753624 155.296065,153.308489 C126.409938,150.393375 108.389235,144.033126 108.389235,120.977226 C108.389235,99.5113875 126.409938,86.7908901 156.621119,86.7908901 C190.542443,86.7908901 207.238095,98.4513472 209.358178,123.89234 C209.358178,124.687371 209.093167,125.482403 208.563147,126.277434 C208.033127,126.807454 207.238095,127.337474 206.443064,127.337474 L192.662526,127.337474 C191.337475,127.337474 190.012423,126.277434 189.747412,124.952382 C186.567289,110.376813 178.351966,105.606625 156.621119,105.606625 C132.240165,105.606625 129.325053,114.086957 129.325053,120.447205 C129.325053,128.132506 132.770187,130.5176 165.631471,134.757766 C198.227744,138.997931 213.598344,145.093169 213.598344,167.884058 C213.333333,191.20497 194.252589,204.455488 160.596274,204.455488 L160.596274,204.455488 Z"
        fill="#539E43" />
    </symbol>


    <!-- php icon -->
    <symbol id="php" viewBox="0 0 32 32">
      <circle cx="16" cy="16" r="14" fill="#8892BF" />
      <path
        d="M14.4392 10H16.1192L15.6444 12.5242H17.154C17.9819 12.5419 18.5986 12.7269 19.0045 13.0793C19.4184 13.4316 19.5402 14.1014 19.3698 15.0881L18.5541 19.4889H16.8497L17.6288 15.2863C17.7099 14.8457 17.6856 14.533 17.5558 14.348C17.426 14.163 17.146 14.0705 16.7158 14.0705L15.3644 14.0573L14.3661 19.4889H12.6861L14.4392 10Z"
        fill="white" />
      <path fill-rule="evenodd" clip-rule="evenodd"
        d="M6.74092 12.5243H10.0036C10.9612 12.533 11.6552 12.8327 12.0854 13.4229C12.5156 14.0132 12.6576 14.8193 12.5115 15.8414C12.4548 16.3085 12.3289 16.7665 12.1341 17.2159C11.9474 17.6652 11.6878 18.0704 11.355 18.4317C10.9491 18.8898 10.5149 19.1805 10.0523 19.304C9.58969 19.4274 9.11076 19.489 8.61575 19.489H7.15484L6.69222 22H5L6.74092 12.5243ZM7.43485 17.9956L8.16287 14.0441H8.40879C8.49815 14.0441 8.5914 14.0396 8.6888 14.0309C9.33817 14.0221 9.87774 14.0882 10.308 14.2291C10.7462 14.37 10.8923 14.9031 10.7462 15.8282C10.5678 16.9296 10.2186 17.5727 9.69926 17.7577C9.1799 17.934 8.53053 18.0176 7.75138 18.0088H7.58094C7.53224 18.0088 7.48355 18.0043 7.43485 17.9956Z"
        fill="white" />
      <path fill-rule="evenodd" clip-rule="evenodd"
        d="M24.4365 12.5243H21.1738L19.4329 22H21.1251L21.5878 19.489H23.0487C23.5437 19.489 24.0226 19.4274 24.4852 19.304C24.9479 19.1805 25.382 18.8898 25.7879 18.4317C26.1207 18.0704 26.3803 17.6652 26.567 17.2159C26.7618 16.7665 26.8877 16.3085 26.9444 15.8414C27.0905 14.8193 26.9486 14.0132 26.5183 13.4229C26.0881 12.8327 25.3942 12.533 24.4365 12.5243ZM22.5958 14.0441L21.8678 17.9956C21.9165 18.0043 21.9652 18.0088 22.0139 18.0088H22.1843C22.9635 18.0176 23.6128 17.934 24.1322 17.7577C24.6515 17.5727 25.0007 16.9296 25.1792 15.8282C25.3253 14.9031 25.1792 14.37 24.7409 14.2291C24.3107 14.0882 23.7711 14.0221 23.1217 14.0309C23.0243 14.0396 22.9311 14.0441 22.8417 14.0441H22.5958Z"
        fill="white" />
    </symbol>


    <!-- aws icon -->
    <symbol id="aws" viewBox="0 0 16 16">
      <path fill="#252F3E"
        d="M4.51 7.687c0 .197.02.357.058.475.042.117.096.245.17.384a.233.233 0 01.037.123c0 .053-.032.107-.1.16l-.336.224a.255.255 0 01-.138.048c-.054 0-.107-.026-.16-.074a1.652 1.652 0 01-.192-.251 4.137 4.137 0 01-.165-.315c-.415.491-.936.737-1.564.737-.447 0-.804-.129-1.064-.385-.261-.256-.394-.598-.394-1.025 0-.454.16-.822.484-1.1.325-.278.756-.416 1.304-.416.18 0 .367.016.564.042.197.027.4.07.612.118v-.39c0-.406-.085-.689-.25-.854-.17-.166-.458-.246-.868-.246-.186 0-.377.022-.574.07a4.23 4.23 0 00-.575.181 1.525 1.525 0 01-.186.07.326.326 0 01-.085.016c-.075 0-.112-.054-.112-.166v-.262c0-.085.01-.15.037-.186a.399.399 0 01.15-.113c.185-.096.409-.176.67-.24.26-.07.537-.101.83-.101.633 0 1.096.144 1.394.432.293.288.442.726.442 1.314v1.73h.01zm-2.161.811c.175 0 .356-.032.548-.096.191-.064.362-.182.505-.342a.848.848 0 00.181-.341c.032-.129.054-.283.054-.465V7.03a4.43 4.43 0 00-.49-.09 3.996 3.996 0 00-.5-.033c-.357 0-.618.07-.793.214-.176.144-.26.347-.26.614 0 .25.063.437.196.566.128.133.314.197.559.197zm4.273.577c-.096 0-.16-.016-.202-.054-.043-.032-.08-.106-.112-.208l-1.25-4.127a.938.938 0 01-.049-.214c0-.085.043-.133.128-.133h.522c.1 0 .17.016.207.053.043.032.075.107.107.208l.894 3.535.83-3.535c.026-.106.058-.176.1-.208a.365.365 0 01.214-.053h.425c.102 0 .17.016.213.053.043.032.08.107.101.208l.841 3.578.92-3.578a.458.458 0 01.107-.208.346.346 0 01.208-.053h.495c.085 0 .133.043.133.133 0 .027-.006.054-.01.086a.76.76 0 01-.038.133l-1.283 4.127c-.032.107-.069.177-.111.209a.34.34 0 01-.203.053h-.457c-.101 0-.17-.016-.213-.053-.043-.038-.08-.107-.101-.214L8.213 5.37l-.82 3.439c-.026.107-.058.176-.1.213-.043.038-.118.054-.213.054h-.458zm6.838.144a3.51 3.51 0 01-.82-.096c-.266-.064-.473-.134-.612-.214-.085-.048-.143-.101-.165-.15a.378.378 0 01-.031-.149v-.272c0-.112.042-.166.122-.166a.3.3 0 01.096.016c.032.011.08.032.133.054.18.08.378.144.585.187.213.042.42.064.633.064.336 0 .596-.059.777-.176a.575.575 0 00.277-.508.52.52 0 00-.144-.373c-.095-.102-.276-.193-.537-.278l-.772-.24c-.388-.123-.676-.305-.851-.545a1.275 1.275 0 01-.266-.774c0-.224.048-.422.143-.593.096-.17.224-.32.384-.438.16-.122.34-.213.553-.277.213-.064.436-.091.67-.091.118 0 .24.005.357.021.122.016.234.038.346.06.106.026.208.052.303.085.096.032.17.064.224.096a.46.46 0 01.16.133.289.289 0 01.047.176v.251c0 .112-.042.171-.122.171a.552.552 0 01-.202-.064 2.427 2.427 0 00-1.022-.208c-.303 0-.543.048-.708.15-.165.1-.25.256-.25.475 0 .149.053.277.16.379.106.101.303.202.585.293l.756.24c.383.123.66.294.825.513.165.219.244.47.244.748 0 .23-.047.437-.138.619a1.436 1.436 0 01-.388.47c-.165.133-.362.23-.591.299-.24.075-.49.112-.761.112z" />

      <g fill="#F90" fill-rule="evenodd" clip-rule="evenodd">

        <path
          d="M14.465 11.813c-1.75 1.297-4.294 1.986-6.481 1.986-3.065 0-5.827-1.137-7.913-3.027-.165-.15-.016-.353.18-.235 2.257 1.313 5.04 2.109 7.92 2.109 1.941 0 4.075-.406 6.039-1.239.293-.133.543.192.255.406z" />

        <path
          d="M15.194 10.98c-.223-.287-1.479-.138-2.048-.069-.17.022-.197-.128-.043-.24 1-.705 2.645-.502 2.836-.267.192.24-.053 1.89-.99 2.68-.143.123-.281.06-.218-.1.213-.53.687-1.72.463-2.003z" />

      </g>
    </symbol>


    <!-- mysql icon -->
    <symbol id="mysql" viewBox="0 0 32 32">
      <path
        d="M8.785,6.865a3.055,3.055,0,0,0-.785.1V7h.038a6.461,6.461,0,0,0,.612.785c.154.306.288.611.441.917.019-.019.038-.039.038-.039a1.074,1.074,0,0,0,.4-.957,4.314,4.314,0,0,1-.23-.4c-.115-.191-.364-.287-.517-.44"
        style="fill:#5d87a1;fill-rule:evenodd" />
      <path
        d="M27.78,23.553a8.849,8.849,0,0,0-3.712.536c-.287.115-.745.115-.785.478.154.153.172.4.307.613a4.467,4.467,0,0,0,.995,1.167c.4.306.8.611,1.225.879.745.461,1.588.728,2.314,1.187.422.268.842.612,1.264.9.21.153.343.4.611.5v-.058a3.844,3.844,0,0,0-.291-.613c-.191-.19-.383-.363-.575-.554a9.118,9.118,0,0,0-1.99-1.932c-.613-.422-1.953-1-2.2-1.7l-.039-.039a7.69,7.69,0,0,0,1.321-.308c.65-.172,1.243-.133,1.912-.3.307-.077.862-.268.862-.268v-.3c-.342-.34-.587-.795-.947-1.116a25.338,25.338,0,0,0-3.122-2.328c-.587-.379-1.344-.623-1.969-.946-.226-.114-.6-.17-.737-.36a7.594,7.594,0,0,1-.776-1.457c-.548-1.04-1.079-2.193-1.551-3.293a20.236,20.236,0,0,0-.965-2.157A19.078,19.078,0,0,0,11.609,5a9.07,9.07,0,0,0-2.421-.776c-.474-.02-.946-.057-1.419-.075A7.55,7.55,0,0,1,6.9,3.485C5.818,2.8,3.038,1.328,2.242,3.277,1.732,4.508,3,5.718,3.435,6.343A8.866,8.866,0,0,1,4.4,7.762c.133.322.171.663.3,1A22.556,22.556,0,0,0,5.687,11.3a8.946,8.946,0,0,0,.7,1.172c.153.209.417.3.474.645a5.421,5.421,0,0,0-.436,1.419,8.336,8.336,0,0,0,.549,6.358c.3.473,1.022,1.514,1.987,1.116.851-.34.662-1.419.908-2.364.056-.229.019-.379.132-.53V19.3s.483,1.061.723,1.6a10.813,10.813,0,0,0,2.4,2.59A3.514,3.514,0,0,1,14,24.657V25h.427A1.054,1.054,0,0,0,14,24.212a9.4,9.4,0,0,1-.959-1.16,24.992,24.992,0,0,1-2.064-3.519c-.3-.6-.553-1.258-.793-1.857-.11-.231-.11-.58-.295-.7a7.266,7.266,0,0,0-.884,1.313,11.419,11.419,0,0,0-.517,2.921c-.073.02-.037,0-.073.038-.589-.155-.792-.792-1.014-1.332a8.756,8.756,0,0,1-.166-5.164c.128-.405.683-1.681.461-2.068-.111-.369-.48-.58-.682-.871a7.767,7.767,0,0,1-.663-1.237C5.912,9.5,5.69,8.3,5.212,7.216a10.4,10.4,0,0,0-.921-1.489A9.586,9.586,0,0,1,3.276,4.22c-.092-.213-.221-.561-.074-.793a.3.3,0,0,1,.259-.252c.238-.212.921.058,1.16.174a9.2,9.2,0,0,1,1.824.967c.258.194.866.685.866.685h.18c.612.133,1.3.037,1.876.21a12.247,12.247,0,0,1,2.755,1.32,16.981,16.981,0,0,1,5.969,6.545c.23.439.327.842.537,1.3.4.94.9,1.9,1.3,2.814a12.578,12.578,0,0,0,1.36,2.564c.286.4,1.435.612,1.952.822a13.7,13.7,0,0,1,1.32.535c.651.4,1.3.861,1.913,1.3.305.23,1.262.708,1.32,1.091"
        style="fill:#00758f;fill-rule:evenodd" />
    </symbol>


    <!-- postgresql icon -->
    <symbol id="postgresql" viewBox="0 0 14 14">
      <path
        d="m 12.730207,8.2675506 c -0.128038,-0.148311 -0.346769,-0.107766 -0.515885,-0.07416 -0.40652,0.07255 -0.848784,0.156847 -1.2425,-0.01227 0.703141,-1.10966 1.25637,-2.321217 1.565795,-3.599994 0.112566,-0.48601 0.199525,-0.983223 0.182987,-1.483637 -0.01227,-0.280083 -0.05121,-0.578304 -0.222466,-0.810373 C 12.074547,1.7285526 11.460499,1.3214986 10.7835,1.1395786 9.9379173,0.91017763 9.0309833,0.97846463 8.1992723,1.2356086 c -0.06882,0.01387 -0.136574,-0.01707 -0.203794,-0.02561 -0.754889,-0.153112 -1.587134,-0.09283 -2.2417271,0.344101 -0.7858316,-0.28275 -1.6303472,-0.453467 -2.4668604,-0.365974 -0.62205,0.06455 -1.2467674,0.353704 -1.6036726,0.88346 -0.451333,0.660995 -0.5126844,1.504977 -0.4406632,2.279605 0.1451094,1.02857 0.39585,2.041135 0.7148774,3.028626 0.2101952,0.615648 0.4417301,1.236098 0.815707,1.773856 0.1899227,0.264078 0.4422637,0.53029 0.7820972,0.571902 0.3019556,0.03681 0.5751028,-0.150444 0.760224,-0.372376 0.3200944,-0.383046 0.649258,-0.759157 0.990692,-1.122998 0.222999,0.109366 0.4652037,0.172318 0.7127434,0.19099 -0.1339062,0.15898 -0.2443387,0.366508 -0.4577349,0.428926 -0.2875514,0.110966 -0.624184,0.09603 -0.877592,0.287552 -0.1461764,0.104564 -0.1531118,0.332364 -0.021873,0.4524 0.2374033,0.230468 0.5873731,0.280082 0.9031995,0.306757 0.4475986,0.03414 0.8999987,-0.116301 1.2398317,-0.409721 -0.0021,0.7116764 0.0011,1.4254874 0.08109,2.1334294 0.04001,0.414522 0.218731,0.827444 0.534024,1.106459 0.297154,0.259276 0.720746,0.313159 1.097923,0.24754 0.370243,-0.07042 0.750622,-0.181387 1.039774,-0.434262 0.30729,-0.271013 0.438529,-0.6802 0.4993467,-1.072849 0.110432,-0.703674 0.19419,-1.410549 0.274214,-2.1174244 0.791166,0.133372 1.686363,-0.01814 2.277471,-0.595909 0.126437,-0.118968 0.246473,-0.324896 0.121636,-0.486543 z m -1.755718,-6.692106 c 0.474807,0.18032 0.896798,0.493479 1.213691,0.889862 0.150978,0.189389 0.170184,0.443864 0.179787,0.676466 0.0069,0.55483 -0.105098,1.102725 -0.24754,1.636216 -0.272614,0.987491 -0.686602,1.933903 -1.206755,2.815229 -0.05122,0.08696 -0.107232,0.170717 -0.169117,0.250208 -0.0048,-0.02401 -0.0144,-0.07309 -0.01921,-0.09763 0.06455,-0.16965 0.158981,-0.329697 0.195791,-0.510017 0.130172,-0.508417 0.02027,-1.031771 -0.02667,-1.543388 -0.04908,-0.482809 0.115767,-0.952815 0.111499,-1.434557 0.01867,-0.235802 -0.07469,-0.458801 -0.165382,-0.670597 -0.328096,-0.73355 -0.8498497,-1.386009 -1.5193807,-1.834141 -0.163248,-0.112033 -0.345702,-0.190456 -0.508416,-0.303022 0.711676,-0.152579 1.4751007,-0.133373 2.1611697,0.124836 z m -0.433727,4.118014 c 0.04161,0.571368 0.207527,1.184882 -0.06189,1.726909 -0.361173,-0.718612 -0.8279777,-1.404681 -0.9906917,-2.204917 -0.04588,-0.254475 -0.05762,-0.576703 0.168583,-0.753822 0.287018,-0.203794 0.6620617,-0.157913 0.9938927,-0.137641 -0.01441,0.458269 -0.155246,0.908001 -0.109366,1.369471 z M 4.0839257,9.0784556 C 3.9542875,9.2310336 3.7793026,9.4129546 3.5584375,9.3676076 3.3002281,9.2929186 3.135913,9.0571166 2.9918705,8.8453206 2.6029559,8.2232706 2.3687536,7.5206636 2.1537569,6.8233916 1.9131526,5.9980816 1.7104262,5.1594346 1.5935918,4.3069166 c -0.05815,-0.648725 -0.021873,-1.344397 0.309958,-1.922167 0.2486066,-0.437462 0.7122099,-0.716478 1.1992868,-0.807705 0.7799632,-0.14991 1.5796655,0.0091 2.3281528,0.237404 -0.3302307,0.362773 -0.5873731,0.790099 -0.737284,1.25797 -0.2043269,0.624718 -0.2976877,1.289447 -0.2486066,1.946174 0.028275,0.462536 0.016005,0.927207 -0.048548,1.386008 -0.081091,0.59911 0.1595137,1.215292 0.6044448,1.619678 -0.3030227,0.354238 -0.624184,0.691937 -0.9176038,1.054711 z m 0.6828679,-2.146232 c -0.076289,-0.3393 0.023474,-0.680734 0.034677,-1.020568 0.026141,-0.384646 -0.00107,-0.769827 -0.00854,-1.154473 0.3595726,-0.232602 0.7799632,-0.414523 1.2158249,-0.389448 0.2256668,0.0096 0.4337278,0.169116 0.4881438,0.391582 0.197925,0.787965 0.259277,1.665024 -0.120035,2.411377 -0.132306,0.288085 -0.239537,0.586306 -0.3318314,0.888795 -0.6305858,0.0064 -1.1667438,-0.526555 -1.2782434,-1.126732 z m 1.9621787,2.109421 c -0.39585,0.536158 -1.1880839,0.638589 -1.7605192,0.346769 0.2822165,-0.130705 0.6124471,-0.120569 0.8850608,-0.281683 0.2635444,-0.141908 0.3681084,-0.454 0.6145814,-0.614581 0.268345,-0.03788 0.464137,0.36064 0.26141,0.548962 z m 3.3951337,-0.626318 c -0.1504447,0.242205 -0.09763,0.537759 -0.1344397,0.806638 -0.08643,0.753822 -0.171251,1.5087114 -0.293953,2.2577324 -0.05815,0.359039 -0.210729,0.740485 -0.549496,0.919204 -0.347302,0.176586 -0.750621,0.287552 -1.141136,0.227267 -0.370776,-0.06508 -0.604445,-0.410787 -0.709542,-0.74742 -0.07682,-0.282216 -0.08483,-0.577237 -0.106699,-0.867989 -0.03734,-0.70154 -0.03788,-1.4046814 -0.01974,-2.1067544 0.01547,-0.274214 -0.12537,-0.559632 -0.370242,-0.693004 -0.118435,-0.06669 -0.257143,-0.07576 -0.389448,-0.08643 0.10403,-0.515885 0.418256,-0.96135 0.526021,-1.476702 0.139775,-0.637521 0.06242,-1.301183 -0.08056,-1.930702 -0.06989,-0.314226 -0.308891,-0.592175 -0.626851,-0.668464 -0.4897444,-0.123236 -0.9837566,0.06829 -1.4217524,0.273147 0.055483,-0.711676 0.2459392,-1.440424 0.681801,-2.018194 0.3206278,-0.429994 0.8178414,-0.717012 1.3486644,-0.785832 0.875991,-0.1115 1.795729,0.129638 2.491934,0.677533 0.575103,0.454534 1.0296367,1.070182 1.2745087,1.762653 -0.407053,-0.0144 -0.8685227,-0.03094 -1.1976857,0.251807 -0.298755,0.251808 -0.337166,0.681268 -0.269946,1.041907 0.155779,0.857853 0.662061,1.587135 1.0355047,2.358562 0.09923,0.180853 0.232602,0.338767 0.359572,0.500948 -0.150978,0.07629 -0.319561,0.149377 -0.405453,0.304623 z m 1.047775,0.606579 c -0.268879,0.03201 -0.548428,0.04161 -0.807705,-0.04748 0.0011,-0.14671 -0.0069,-0.320628 0.110966,-0.429994 0.09336,-0.06882 0.2262,-0.132306 0.333965,-0.05708 0.458802,0.241671 0.992293,0.123769 1.480437,0.06455 -0.298222,0.290219 -0.711143,0.425725 -1.117663,0.470005 z M 9.7623993,4.5688596 c -0.09549,0.07842 0.0075,0.195792 0.08963,0.232602 0.1989917,0.116835 0.4716057,-0.04641 0.4780077,-0.27368 -0.179786,-0.08376 -0.4054527,-0.07522 -0.5681677,0.04108 z m -3.522105,0.362774 c 0.08483,-0.04801 0.174452,-0.179786 0.07629,-0.259276 -0.139774,-0.113634 -0.343034,-0.135507 -0.5132175,-0.08963 -0.05495,0.01921 -0.1125665,0.05655 -0.1013632,0.12377 0.039478,0.228334 0.3451684,0.367042 0.5377587,0.225133 z" />

    </symbol>


    <!-- mongodb icon -->
    <symbol id="mongodb" viewBox="0 0 32 32">
      <path
        d="M15.821 23.185s0-10.361 0.344-10.36c0.266 0 0.612 13.365 0.612 13.365-0.476-0.056-0.956-2.199-0.956-3.005zM22.489 12.945c-0.919-4.016-2.932-7.469-5.708-10.134l-0.007-0.006c-0.338-0.516-0.647-1.108-0.895-1.732l-0.024-0.068c0.001 0.020 0.001 0.044 0.001 0.068 0 0.565-0.253 1.070-0.652 1.409l-0.003 0.002c-3.574 3.034-5.848 7.505-5.923 12.508l-0 0.013c-0.001 0.062-0.001 0.135-0.001 0.208 0 4.957 2.385 9.357 6.070 12.115l0.039 0.028 0.087 0.063q0.241 1.784 0.412 3.576h0.601c0.166-1.491 0.39-2.796 0.683-4.076l-0.046 0.239c0.396-0.275 0.742-0.56 1.065-0.869l-0.003 0.003c2.801-2.597 4.549-6.297 4.549-10.404 0-0.061-0-0.121-0.001-0.182l0 0.009c-0.003-0.981-0.092-1.94-0.261-2.871l0.015 0.099z">
      </path>
    </symbol>
  </defs>
</svg>